<svg width="33" height="32" viewBox="0 0 33 32" fill="none" xmlns="http://www.w3.org/2000/svg">
<path d="M1.59998 16.306C1.59998 12.8725 1.59998 11.1565 2.37998 9.7345C3.15698 8.311 4.58048 7.429 7.42598 5.662L10.426 3.8005C13.4335 1.933 14.938 1 16.6 1C18.262 1 19.765 1.933 22.774 3.8005L25.774 5.662C28.6195 7.429 30.043 8.311 30.8215 9.7345C31.6 11.1565 31.6 12.8725 31.6 16.3045V18.5875C31.6 24.4375 31.6 27.364 29.842 29.182C28.0855 31 25.2565 31 19.6 31H13.6C7.94348 31 5.11448 31 3.35798 29.182C1.59998 27.364 1.59998 24.439 1.59998 18.5875V16.306Z" stroke="white" stroke-width="1.5"/>
<path d="M16.6 20.5V25" stroke="white" stroke-width="1.5" stroke-linecap="round"/>
</svg>
